<?xml version="1.0" encoding="UTF-8"?>
<svg id="Layer_1" data-name="Layer 1" xmlns="http://www.w3.org/2000/svg" viewBox="0 0 1000 1000">
  <defs>
    <style>
      .cls-1 {
        fill: #e6e7e8;
      }

      .cls-1, .cls-2 {
        stroke-width: 0px;
      }

      .cls-2 {
        fill: #292929;
      }
    </style>
  </defs>
  <rect class="cls-1" width="1000" height="1000" rx="227.67" ry="227.67"/>
  <path class="cls-2" d="M774.94,298.08l8.8-6.73c6.27-4.79,8.01-13.51,4.07-20.35l-15.68-27.23c-3.9-6.77-12.17-9.64-19.41-6.74l-11.54,4.63c-11.09,4.45-23.71,1.37-31.69-7.55-6.92-7.74-14.26-15.08-22-21.97-9.09-8.1-12.18-21.01-7.49-32.26l5.78-13.87c3.04-7.29.2-15.71-6.63-19.67l-27.17-15.73c-6.75-3.91-15.34-2.25-20.16,3.89l-10.1,12.87c-7.31,9.32-19.62,13.03-30.89,9.43-11.04-3.52-22.39-6.34-34-8.39-11.98-2.12-21.21-11.77-22.95-23.83l-2.59-17.99c-1.11-7.74-7.72-13.48-15.52-13.48h-31.37c-7.89,0-14.54,5.87-15.55,13.71l-2.82,21.94c-1.48,11.54-9.87,20.96-21.12,23.84-10.66,2.73-21.07,6.11-31.18,10.09-11.52,4.54-24.65.8-32.3-8.94l-14-17.83c-4.82-6.14-13.41-7.8-20.16-3.89l-27.17,15.73c-6.83,3.95-9.67,12.37-6.63,19.67l11.59,27.83c4.38,10.51,2,22.58-5.91,30.75-4.69,4.84-9.2,9.85-13.53,15.03-7.8,9.33-20.76,12.47-32.03,7.95l-26.27-10.54c-7.24-2.9-15.51-.03-19.4,6.73l-15.69,27.24c-3.94,6.84-2.2,15.56,4.07,20.36l25.46,19.48c9.29,7.11,13.21,19.19,9.98,30.45-2.94,10.23-5.31,20.71-7.08,31.4-2.87,17.33,10.34,33.14,27.86,33.14h14.89c13.84,0,25.67-10.04,27.88-23.74,15.58-96.72,97.46-170.49,196.12-170.49,103.72,0,188.88,81.49,198,185.48.54,6.1.79,20.29.78,21.16-1.39,28.8-34.49,235.47-58.62,391.76-2.13,13.81-13.99,23.99-27.93,23.99h-225.74c-14.05,0-25.96-10.34-27.97-24.27l-45.98-318.33c-2.01-13.94-13.93-24.27-27.97-24.27h-14.89c-17.22,0-30.44,15.31-27.97,32.39l40.83,282.71,7.6,51.77,6.94,47.24c2.04,13.91,13.94,24.21,27.96,24.21h348.68c14.05,0,25.96-10.34,27.97-24.27l6.81-47.17s57.93-403.94,58.72-414.62c.03-.34.06-.67.07-1,.56-7.57.71-22.28.68-22.56-1.94-23.52-6.74-46.19-14.06-67.66-3.91-11.46.05-24.15,9.66-31.5Z"/>
</svg>