<?xml version="1.0" encoding="UTF-8"?>
<svg id="Layer_1" data-name="Layer 1" xmlns="http://www.w3.org/2000/svg" viewBox="0 0 1000 1000">
  <defs>
    <style>
      .cls-1 {
        fill: #292929;
        stroke-width: 0px;
      }
    </style>
  </defs>
  <path class="cls-1" d="M692.87,358.7l6.17-4.71c4.4-3.36,5.62-9.45,2.85-14.24l-11-19.06c-2.73-4.74-8.54-6.75-13.61-4.71l-8.09,3.24c-7.78,3.11-16.64.96-22.23-5.29-4.85-5.42-10.01-10.55-15.43-15.37-6.37-5.67-8.54-14.7-5.26-22.57l4.05-9.71c2.13-5.1.14-11-4.65-13.76l-19.06-11.01c-4.74-2.74-10.76-1.57-14.15,2.72l-7.09,9.01c-5.13,6.52-13.76,9.12-21.67,6.6s-15.71-4.44-23.85-5.87-14.88-8.23-16.1-16.68l-1.81-12.59c-.78-5.41-5.42-9.43-10.89-9.43h-22.01c-5.53,0-10.2,4.11-10.91,9.59l-1.98,15.35c-1.04,8.08-6.92,14.67-14.82,16.68-7.48,1.91-14.78,4.27-21.88,7.06-8.08,3.18-17.29.56-22.66-6.26l-9.82-12.48c-3.38-4.3-9.41-5.46-14.15-2.72l-19.06,11.01c-4.79,2.77-6.78,8.66-4.65,13.76l8.13,19.48c3.07,7.35,1.4,15.8-4.15,21.52-3.29,3.39-6.45,6.9-9.49,10.52-5.47,6.53-14.56,8.73-22.47,5.56l-18.43-7.37c-5.08-2.03-10.88-.02-13.61,4.71l-11.01,19.06c-2.77,4.79-1.55,10.89,2.85,14.24l17.86,13.63c6.52,4.97,9.26,13.43,7,21.31-2.06,7.16-3.72,14.5-4.97,21.98-2.02,12.13,7.25,23.19,19.55,23.19h10.44c9.71,0,18.01-7.03,19.56-16.61,10.93-67.69,68.37-119.31,137.58-119.31,72.76,0,132.5,57.03,138.9,129.8.38,4.27.56,14.2.55,14.81-.98,20.16-24.2,164.78-41.12,274.16-1.5,9.67-9.81,16.79-19.59,16.79h-158.36c-9.85,0-18.21-7.24-19.62-16.99l-32.26-222.77c-1.41-9.75-9.77-16.99-19.62-16.99h-10.45c-12.08,0-21.36,10.71-19.62,22.67l28.64,197.85,5.33,36.23,4.87,33.06c1.43,9.73,9.78,16.94,19.62,16.94h244.6c9.85,0,18.21-7.24,19.62-16.99l4.78-33.01s40.64-282.68,41.19-290.16c.02-.24.04-.47.05-.7.39-5.3.5-15.59.48-15.79-1.36-16.46-4.73-32.33-9.86-47.35-2.74-8.02.04-16.9,6.78-22.04Z"/>
</svg>